<?xml version="1.0" encoding="UTF-8"?><svg id="Layer_1" xmlns="http://www.w3.org/2000/svg" viewBox="0 0 512 512"><defs><style>.cls-1{fill:#5b93ce;}.cls-1,.cls-2,.cls-3,.cls-4,.cls-5,.cls-6{stroke-width:0px;}.cls-2{fill:#ee2a24;}.cls-3{fill:#ffe25e;}.cls-4{fill:#49ba76;}.cls-5{fill:#f39d21;}.cls-6{fill:#282828;}</style></defs><path class="cls-6" d="M468,116h-64c-4.42,0-8-3.58-8-8V44c0-9.94-8.06-18-18-18h-244c-9.94,0-18,8.06-18,18v64c0,4.42-3.58,8-8,8H44c-9.94,0-18,8.06-18,18v244c0,9.94,8.06,18,18,18h64c4.42,0,8,3.58,8,8v64c0,9.94,8.06,18,18,18h244c9.94,0,18-8.06,18-18v-64c0-4.42,3.58-8,8-8h64c9.94,0,18-8.06,18-18v-244c0-9.94-8.06-18-18-18Z"/><rect class="cls-3" x="216" y="216" width="80" height="80" rx="8" ry="8"/><rect class="cls-3" x="306" y="216" width="80" height="80" rx="8" ry="8"/><rect class="cls-3" x="216" y="126" width="80" height="80" rx="8" ry="8"/><rect class="cls-3" x="126" y="216" width="80" height="80" rx="8" ry="8"/><rect class="cls-3" x="216" y="306" width="80" height="80" rx="8" ry="8"/><rect class="cls-3" x="306" y="306" width="80" height="80" rx="8" ry="8"/><rect class="cls-3" x="126" y="306" width="80" height="80" rx="8" ry="8"/><rect class="cls-1" x="216" y="396" width="80" height="80" rx="8" ry="8"/><rect class="cls-5" x="306" y="396" width="80" height="80" rx="8" ry="8"/><rect class="cls-5" x="126" y="396" width="80" height="80" rx="8" ry="8"/><rect class="cls-3" x="126" y="126" width="80" height="80" rx="8" ry="8"/><rect class="cls-5" x="36" y="216" width="80" height="80" rx="8" ry="8"/><rect class="cls-4" x="36" y="306" width="80" height="80" rx="8" ry="8"/><rect class="cls-4" x="36" y="126" width="80" height="80" rx="8" ry="8"/><rect class="cls-3" x="306" y="126" width="80" height="80" rx="8" ry="8"/><rect class="cls-4" x="396" y="216" width="80" height="80" rx="8" ry="8"/><rect class="cls-1" x="396" y="306" width="80" height="80" rx="8" ry="8"/><rect class="cls-1" x="396" y="126" width="80" height="80" rx="8" ry="8"/><rect class="cls-2" x="216" y="36" width="80" height="80" rx="8" ry="8"/><rect class="cls-2" x="126" y="36" width="80" height="80" rx="8" ry="8"/><rect class="cls-2" x="306" y="36" width="80" height="80" rx="8" ry="8"/></svg>